<svg xmlns="http://www.w3.org/2000/svg" width="171.98" height="40" viewBox="0 0 171.98 40">
  <g id="img" transform="translate(-293.205 -20)">
    <path id="パス_139" data-name="パス 139" d="M297.179,32.042a3.931,3.931,0,0,0,1.137,3.326,1.552,1.552,0,0,1,.379,1.474,2.378,2.378,0,0,1-2.189,1.853,1.968,1.968,0,0,1-1.264-.463,6.61,6.61,0,0,1-1.894-6.19c1.01-4.716,5.263-7.368,10.189-7.368h9.179a1.392,1.392,0,0,1,1.474,1.852,2.332,2.332,0,0,1-2.274,1.853h-9.3C299.874,28.379,297.727,29.6,297.179,32.042Zm4,11.411,2.569-12.042a2.351,2.351,0,0,1,2.316-1.853,1.42,1.42,0,0,1,1.515,1.853l-2.863,13.347c-.589,2.779-2.273,5.01-5.726,5.01a3.951,3.951,0,0,1-3.621-1.642,2.154,2.154,0,0,1-.211-1.221,2.71,2.71,0,0,1,.969-1.389,2.432,2.432,0,0,1,1.431-.548,1.612,1.612,0,0,1,1.263.632,1.177,1.177,0,0,0,.927.463C300.421,46.063,300.716,45.558,301.179,43.453Z" fill="#666"/>
    <path id="パス_140" data-name="パス 140" d="M316.379,24.758C317.221,20.8,318.99,20,321.768,20h.295c.969,0,1.642.547,1.348,1.81a2.1,2.1,0,0,1-2.106,1.811h-.168c-.505,0-.842.211-1.011,1.011L317.6,36.421a7.228,7.228,0,0,1,5.895-3.326c2.61,0,4.252,1.642,3.537,5.052l-1.6,7.411c-.127.674,0,.842.294.842a1.565,1.565,0,0,0,.885-.379c1.347-.842,2.273.126,2.063,1.263a2.557,2.557,0,0,1-1.053,1.432,4.761,4.761,0,0,1-3.116,1.052c-2.189,0-3.368-1.136-2.737-4.084l1.39-6.694c.421-1.811-.295-2.316-1.3-2.316-1.937,0-4.674,1.937-5.558,6.021l-1.137,5.263a2.268,2.268,0,0,1-2.274,1.81,1.381,1.381,0,0,1-1.431-1.81Z" fill="#666"/>
    <path id="パス_141" data-name="パス 141" d="M330.568,41.474A10.332,10.332,0,0,1,340.631,33.1c4.884,0,6.526,2.9,5.937,5.642-.632,2.9-3.242,5.1-7.242,5.1a5.173,5.173,0,0,1-2.274-.548,1.356,1.356,0,0,1-.758-1.642,2.29,2.29,0,0,1,2.19-1.726,17.857,17.857,0,0,0,1.852.379,2.18,2.18,0,0,0,2.274-1.684c.253-1.137-.463-2.022-2.653-2.022-2.694,0-4.842,2.232-5.389,4.885-.59,2.652.8,4.926,3.874,4.926a8.231,8.231,0,0,0,4.421-1.263,2.818,2.818,0,0,1,1.263-.379,1.189,1.189,0,0,1,1.221.8,2.431,2.431,0,0,1-1.39,2.695,12.469,12.469,0,0,1-6.61,1.642C332.168,49.9,329.6,45.979,330.568,41.474Z" fill="#666"/>
    <path id="パス_142" data-name="パス 142" d="M359.535,32.042a3.928,3.928,0,0,0,1.137,3.326,1.552,1.552,0,0,1,.379,1.474,2.379,2.379,0,0,1-2.19,1.853,1.964,1.964,0,0,1-1.263-.463,6.608,6.608,0,0,1-1.895-6.19c1.011-4.716,5.263-7.368,10.19-7.368h9.179a1.391,1.391,0,0,1,1.473,1.852,2.33,2.33,0,0,1-2.273,1.853h-9.306C362.23,28.379,360.082,29.6,359.535,32.042Zm4,11.411L366.1,31.411a2.353,2.353,0,0,1,2.316-1.853,1.42,1.42,0,0,1,1.516,1.853l-2.863,13.347c-.59,2.779-2.274,5.01-5.727,5.01a3.953,3.953,0,0,1-3.621-1.642,2.161,2.161,0,0,1-.21-1.221,2.7,2.7,0,0,1,.968-1.389,2.435,2.435,0,0,1,1.432-.548,1.615,1.615,0,0,1,1.263.632,1.176,1.176,0,0,0,.926.463C362.777,46.063,363.072,45.558,363.535,43.453Z" fill="#666"/>
    <path id="パス_143" data-name="パス 143" d="M376.545,34.9a2.225,2.225,0,0,1,2.232-1.81,1.391,1.391,0,0,1,1.473,1.81l-.379,1.769c1.516-2.19,3.495-3.579,5.179-3.579,2.106,0,2.7,1.389,2.442,2.568a2.423,2.423,0,0,1-2.063,1.979c-1.01,0-.926-.884-1.895-.884-2.231,0-4.378,3.916-5.01,6.274L377.471,48a2.224,2.224,0,0,1-2.231,1.81A1.391,1.391,0,0,1,373.766,48Z" fill="#666"/>
    <path id="パス_144" data-name="パス 144" d="M387.576,45.684,389.849,34.9a2.226,2.226,0,0,1,2.232-1.81,1.392,1.392,0,0,1,1.474,1.81l-2.274,10.653c-.126.674-.042.842.295.842a1.465,1.465,0,0,0,.842-.379c1.347-.842,2.274.126,2.063,1.263a2.548,2.548,0,0,1-1.053,1.432,4.758,4.758,0,0,1-3.115,1.052C388.123,49.768,386.944,48.632,387.576,45.684Zm8.21-17.895a3.081,3.081,0,0,1-2.9,2.4,1.854,1.854,0,0,1-1.9-2.4,3.091,3.091,0,0,1,2.906-2.4A1.882,1.882,0,0,1,395.786,27.789Z" fill="#666"/>
    <path id="パス_145" data-name="パス 145" d="M402.565,35.453a7.493,7.493,0,0,1,5.347-2.358c3.748,0,5.306,3.116,4.464,7.242-1.137,5.347-5.222,9.558-9.937,9.558a3.037,3.037,0,0,1-2.7-1.179l-2.021,9.516A2.229,2.229,0,0,1,395.491,60a1.36,1.36,0,0,1-1.473-1.768l4.968-23.285a2.225,2.225,0,0,1,2.232-1.81,1.391,1.391,0,0,1,1.473,1.81Zm5.853,4.968c.505-2.316-.3-3.747-1.937-3.747-2.569,0-4.8,2.947-5.39,5.768l-.084.379c-.379,2.189.505,3.5,2.105,3.5C405.765,46.316,407.786,43.495,408.418,40.421Z" fill="#666"/>
    <path id="パス_146" data-name="パス 146" d="M425.553,32.042a3.928,3.928,0,0,0,1.137,3.326,1.552,1.552,0,0,1,.379,1.474,2.379,2.379,0,0,1-2.19,1.853,1.964,1.964,0,0,1-1.263-.463,6.6,6.6,0,0,1-1.894-6.19c1.01-4.716,5.263-7.368,10.189-7.368h9.179a1.391,1.391,0,0,1,1.473,1.852,2.33,2.33,0,0,1-2.273,1.853h-9.305C428.248,28.379,426.1,29.6,425.553,32.042Zm4,11.411,2.568-12.042a2.353,2.353,0,0,1,2.316-1.853,1.42,1.42,0,0,1,1.516,1.853L433.09,44.758c-.59,2.779-2.274,5.01-5.727,5.01a3.95,3.95,0,0,1-3.62-1.642,2.153,2.153,0,0,1-.211-1.221,2.7,2.7,0,0,1,.968-1.389,2.435,2.435,0,0,1,1.432-.548,1.615,1.615,0,0,1,1.263.632,1.177,1.177,0,0,0,.926.463C428.8,46.063,429.09,45.558,429.553,43.453Z" fill="#666"/>
    <path id="パス_147" data-name="パス 147" d="M440.163,45.684,442.437,34.9a2.225,2.225,0,0,1,2.231-1.81,1.391,1.391,0,0,1,1.474,1.81l-2.274,10.653c-.126.674-.042.842.295.842a1.462,1.462,0,0,0,.842-.379c1.348-.842,2.274.126,2.063,1.263a2.55,2.55,0,0,1-1.052,1.432,4.763,4.763,0,0,1-3.116,1.052C440.711,49.768,439.532,48.632,440.163,45.684Zm8.211-17.895a3.082,3.082,0,0,1-2.906,2.4,1.853,1.853,0,0,1-1.894-2.4,3.09,3.09,0,0,1,2.9-2.4A1.883,1.883,0,0,1,448.374,27.789Z" fill="#666"/>
    <path id="パス_148" data-name="パス 148" d="M455.152,35.453A7.5,7.5,0,0,1,460.5,33.1c3.747,0,5.3,3.116,4.463,7.242-1.137,5.347-5.221,9.558-9.937,9.558a3.037,3.037,0,0,1-2.7-1.179l-2.021,9.516A2.228,2.228,0,0,1,448.079,60a1.36,1.36,0,0,1-1.474-1.768l4.968-23.285a2.226,2.226,0,0,1,2.232-1.81,1.392,1.392,0,0,1,1.474,1.81Zm5.853,4.968c.505-2.316-.3-3.747-1.937-3.747-2.568,0-4.8,2.947-5.389,5.768l-.084.379c-.379,2.189.505,3.5,2.105,3.5C458.352,46.316,460.373,43.495,461.005,40.421Z" fill="#666"/>
  </g>
</svg>
