<svg xmlns="http://www.w3.org/2000/svg" width="14.946" height="12" viewBox="0 0 14.946 12">
  <path id="angle-double-right-solid" d="M32.124,101.313l5.1-5.1a.9.9,0,0,1,1.271,0l.847.847a.9.9,0,0,1,0,1.271l-3.61,3.618,3.614,3.614a.9.9,0,0,1,0,1.271l-.847.851a.9.9,0,0,1-1.271,0l-5.1-5.1A.9.9,0,0,1,32.124,101.313Zm-7.2,1.275,5.1,5.1a.9.9,0,0,0,1.271,0l.847-.847a.9.9,0,0,0,0-1.271l-3.61-3.618,3.614-3.614a.9.9,0,0,0,0-1.271l-.847-.851a.9.9,0,0,0-1.271,0l-5.1,5.1A.9.9,0,0,0,24.926,102.587Z" transform="translate(39.609 107.95) rotate(180)" fill="#8a8a8a"/>
</svg>
