<svg xmlns="http://www.w3.org/2000/svg" width="16" height="16" viewBox="0 0 16 16">
  <path id="icon_trash" d="M1.143,14.5A1.618,1.618,0,0,0,2.857,16H13.143a1.618,1.618,0,0,0,1.714-1.5V4H1.143Zm9.714-8A.577.577,0,0,1,12,6.5v7a.577.577,0,0,1-1.143,0Zm-3.429,0a.577.577,0,0,1,1.143,0v7a.577.577,0,0,1-1.143,0ZM4,6.5A.539.539,0,0,1,4.571,6a.539.539,0,0,1,.571.5v7a.539.539,0,0,1-.571.5A.539.539,0,0,1,4,13.5ZM15.429,1H11.143L10.807.415A.877.877,0,0,0,10.039,0H5.957a.866.866,0,0,0-.764.416L4.857,1H.571A.539.539,0,0,0,0,1.5v1A.539.539,0,0,0,.571,3H15.429A.539.539,0,0,0,16,2.5v-1A.539.539,0,0,0,15.429,1Z" transform="translate(0 0)" fill="#98a6b5"/>
</svg>
