<svg xmlns="http://www.w3.org/2000/svg" width="26" height="21.117" viewBox="0 0 26 21.117">
  <path id="twitter-brands" d="M23.327,53.345c.017.231.017.462.017.693A15.057,15.057,0,0,1,8.183,69.2,15.058,15.058,0,0,1,0,66.807a11.022,11.022,0,0,0,1.287.066A10.672,10.672,0,0,0,7.9,64.6,5.338,5.338,0,0,1,2.92,60.9a6.721,6.721,0,0,0,1.006.082,5.636,5.636,0,0,0,1.4-.181,5.329,5.329,0,0,1-4.273-5.23v-.066a5.366,5.366,0,0,0,2.409.676,5.337,5.337,0,0,1-1.65-7.127A15.147,15.147,0,0,0,12.8,54.632a6.015,6.015,0,0,1-.132-1.221,5.334,5.334,0,0,1,9.222-3.646,10.491,10.491,0,0,0,3.382-1.287,5.314,5.314,0,0,1-2.343,2.937A10.683,10.683,0,0,0,26,50.59,11.455,11.455,0,0,1,23.327,53.345Z" transform="translate(0 -48.082)" fill="#fff"/>
</svg>
