<svg id="icons_dark_setting" data-name="icons/dark/setting" xmlns="http://www.w3.org/2000/svg" width="29" height="29" viewBox="0 0 29 29">
  <rect id="長方形_531" data-name="長方形 531" width="29" height="29" fill="#fff" opacity="0"/>
  <g id="settings" transform="translate(3.606 3.951)">
    <circle id="楕円形_52" data-name="楕円形 52" cx="3.5" cy="3.5" r="3.5" transform="translate(7.394 7.049)" stroke-width="1.5" stroke="#666" stroke-linecap="round" stroke-linejoin="round" fill="none"/>
    <path id="パス_199" data-name="パス 199" d="M19.094,14.767a1.623,1.623,0,0,0,.325,1.79l.059.059A1.968,1.968,0,1,1,16.695,19.4l-.059-.059a1.636,1.636,0,0,0-2.773,1.16v.167a1.967,1.967,0,1,1-3.934,0v-.089a1.623,1.623,0,0,0-1.062-1.485,1.623,1.623,0,0,0-1.79.325l-.059.059a1.968,1.968,0,1,1-2.783-2.783l.059-.059a1.636,1.636,0,0,0-1.16-2.773H2.967a1.967,1.967,0,1,1,0-3.934h.089A1.623,1.623,0,0,0,4.54,8.867a1.623,1.623,0,0,0-.325-1.79l-.059-.059A1.968,1.968,0,1,1,6.94,4.235L7,4.294a1.623,1.623,0,0,0,1.79.325h.079A1.623,1.623,0,0,0,9.85,3.134V2.967a1.967,1.967,0,1,1,3.934,0v.089a1.636,1.636,0,0,0,2.773,1.16l.059-.059A1.968,1.968,0,1,1,19.4,6.94L19.34,7a1.623,1.623,0,0,0-.325,1.79v.079A1.623,1.623,0,0,0,20.5,9.85h.167a1.967,1.967,0,1,1,0,3.934h-.089A1.623,1.623,0,0,0,19.094,14.767Z" transform="translate(-1 -1)" fill="none" stroke="#666" stroke-linecap="round" stroke-linejoin="round" stroke-width="1.5"/>
  </g>
</svg>
