<svg id="img.site_title" xmlns="http://www.w3.org/2000/svg" width="822" height="277.788" viewBox="0 0 822 277.788">
  <g id="グループ_19" data-name="グループ 19">
    <path id="パス_112" data-name="パス 112" d="M309.875,308.016c-1.206,6.44,1.812,11.673,5.435,15.9a7.405,7.405,0,0,1,1.81,7.044c-1.006,4.629-5.433,8.855-10.464,8.855a9.371,9.371,0,0,1-6.038-2.214,31.582,31.582,0,0,1-9.056-29.584c4.831-22.539,25.156-35.218,48.7-35.218h43.872c6.037,0,8.05,4.227,7.044,8.856a11.144,11.144,0,0,1-10.867,8.855H335.836C322.754,290.509,312.491,296.345,309.875,308.016Zm19.118,54.538L341.27,305a11.239,11.239,0,0,1,11.068-8.855c4.426,0,8.452,2.615,7.245,8.855L345.9,368.793c-2.817,13.282-10.867,23.949-27.369,23.949-5.635,0-13.082-1.007-17.308-7.849a10.318,10.318,0,0,1-1.006-5.837,12.943,12.943,0,0,1,4.629-6.641,11.636,11.636,0,0,1,6.843-2.616,7.713,7.713,0,0,1,6.036,3.019,5.626,5.626,0,0,0,4.428,2.214C325.37,375.031,326.78,372.616,328.993,362.554Z" transform="translate(-290.88 -250.46)" fill="#fff"/>
    <path id="パス_113" data-name="パス 113" d="M397.646,274.228c4.025-18.918,12.477-22.742,25.759-22.742h1.409c4.629,0,7.849,2.616,6.44,8.654-1.207,5.836-5.434,8.655-10.062,8.655h-.8c-2.415,0-4.025,1.005-4.83,4.83l-12.075,56.348c6.641-10.466,18.313-15.9,28.174-15.9,12.477,0,20.327,7.849,16.9,24.149l-7.647,35.419c-.6,3.22,0,4.025,1.409,4.025a7.459,7.459,0,0,0,4.226-1.811c6.441-4.025,10.867.6,9.861,6.038a12.187,12.187,0,0,1-5.031,6.841,22.752,22.752,0,0,1-14.892,5.032c-10.465,0-16.1-5.435-13.081-19.522l6.641-32c2.012-8.655-1.409-11.069-6.239-11.069-9.257,0-22.338,9.257-26.564,28.778l-5.435,25.156a10.843,10.843,0,0,1-10.867,8.655c-4.225,0-8.049-2.82-6.841-8.655Z" transform="translate(-286.884 -251.486)" fill="#fff"/>
    <path id="パス_114" data-name="パス 114" d="M461.3,351.247c4.829-22.539,23.747-40.048,48.1-40.048,23.344,0,31.193,13.886,28.375,26.967-3.019,13.886-15.5,24.352-34.614,24.352a24.734,24.734,0,0,1-10.867-2.616c-2.817-1.41-4.427-3.825-3.622-7.85,1.207-4.427,5.635-8.654,10.465-8.252,2.616.2,5.635,1.812,8.855,1.812,5.635,0,9.861-3.221,10.867-8.05,1.207-5.434-2.214-9.661-12.678-9.661-12.88,0-23.143,10.667-25.759,23.345-2.817,12.678,3.824,23.546,18.514,23.546,8.452,0,14.49-2.214,21.131-6.037a13.483,13.483,0,0,1,6.037-1.811c3.019,0,5.232,1.61,5.837,3.824,1.408,5.032-1.41,9.661-6.641,12.881-7.648,4.425-17.107,7.847-31.6,7.847C468.947,391.5,456.672,372.78,461.3,351.247Z" transform="translate(-282.721 -248.611)" fill="#fff"/>
    <path id="パス_115" data-name="パス 115" d="M594.22,308.016c-1.207,6.44,1.811,11.673,5.434,15.9a7.406,7.406,0,0,1,1.811,7.044c-1.006,4.629-5.434,8.855-10.465,8.855a9.37,9.37,0,0,1-6.037-2.214,31.58,31.58,0,0,1-9.056-29.584c4.83-22.539,25.156-35.218,48.7-35.218h43.871c6.038,0,8.051,4.227,7.045,8.856a11.144,11.144,0,0,1-10.867,8.855H620.18C607.1,290.509,596.836,296.345,594.22,308.016Zm19.118,54.538L625.615,305a11.237,11.237,0,0,1,11.067-8.855c4.427,0,8.453,2.615,7.246,8.855l-13.685,63.794c-2.819,13.282-10.867,23.949-27.369,23.949-5.635,0-13.082-1.007-17.308-7.849a10.318,10.318,0,0,1-1.006-5.837,12.943,12.943,0,0,1,4.629-6.641,11.633,11.633,0,0,1,6.842-2.616,7.713,7.713,0,0,1,6.037,3.019,5.625,5.625,0,0,0,4.428,2.214C609.715,375.031,611.125,372.616,613.338,362.554Z" transform="translate(-277.189 -250.46)" fill="#fff"/>
    <path id="パス_116" data-name="パス 116" d="M671.534,319.853A10.635,10.635,0,0,1,682.2,311.2c4.427,0,8.251,2.816,7.044,8.654l-1.812,8.452c7.245-10.465,16.7-17.106,24.753-17.106,10.063,0,12.88,6.641,11.673,12.276s-6.038,9.458-9.861,9.458c-4.831,0-4.428-4.226-9.057-4.226-10.666,0-20.929,18.716-23.947,29.985l-5.031,23.747a10.635,10.635,0,0,1-10.667,8.654c-4.427,0-8.251-2.816-7.044-8.654Z" transform="translate(-273.202 -248.611)" fill="#fff"/>
    <path id="パス_117" data-name="パス 117" d="M721.253,373.063l10.866-51.519a10.635,10.635,0,0,1,10.667-8.654c4.426,0,8.251,2.816,7.044,8.654l-10.868,50.915c-.6,3.22-.2,4.025,1.409,4.025,1.208,0,2.416-.6,4.026-1.811,6.44-4.025,10.867.6,9.861,6.038a12.184,12.184,0,0,1-5.032,6.841,22.748,22.748,0,0,1-14.892,5.032C723.868,392.585,718.234,387.15,721.253,373.063Zm39.242-85.53A14.724,14.724,0,0,1,746.609,299c-6.439,0-10.464-4.83-9.055-11.472,1.408-6.439,7.445-11.471,13.886-11.471C757.679,276.062,761.9,281.094,760.495,287.533Z" transform="translate(-270.197 -250.303)" fill="#fff"/>
    <path id="パス_118" data-name="パス 118" d="M791.454,322.469a35.819,35.819,0,0,1,25.558-11.27c17.911,0,25.358,14.892,21.333,34.614-5.435,25.558-24.955,45.682-47.495,45.682-5.635,0-9.66-1.409-12.88-5.635l-9.66,45.482a10.65,10.65,0,0,1-10.666,8.452c-4.629,0-8.251-2.817-7.044-8.452l23.747-111.289a10.636,10.636,0,0,1,10.666-8.655c4.428,0,8.251,2.818,7.045,8.655Zm27.973,23.747c2.416-11.069-1.409-17.911-9.257-17.911-12.276,0-22.942,14.086-25.759,27.57l-.4,1.81c-1.811,10.466,2.415,16.705,10.063,16.705C806.749,374.391,816.409,360.906,819.427,346.216Z" transform="translate(-268.756 -248.611)" fill="#fff"/>
    <path id="パス_119" data-name="パス 119" d="M895.267,308.016c-1.208,6.44,1.81,11.673,5.433,15.9a7.4,7.4,0,0,1,1.812,7.044c-1.006,4.629-5.435,8.855-10.466,8.855a9.364,9.364,0,0,1-6.036-2.214,31.575,31.575,0,0,1-9.056-29.584c4.829-22.539,25.156-35.218,48.7-35.218h43.871c6.037,0,8.05,4.227,7.044,8.856a11.143,11.143,0,0,1-10.867,8.855H921.227C908.146,290.509,897.883,296.345,895.267,308.016Zm19.118,54.538L926.661,305a11.239,11.239,0,0,1,11.068-8.855c4.427,0,8.452,2.615,7.244,8.855l-13.684,63.794c-2.818,13.282-10.867,23.949-27.369,23.949-5.635,0-13.081-1.007-17.307-7.849a10.3,10.3,0,0,1-1.006-5.837,12.943,12.943,0,0,1,4.629-6.641,11.626,11.626,0,0,1,6.841-2.616,7.716,7.716,0,0,1,6.038,3.019,5.623,5.623,0,0,0,4.427,2.214C910.762,375.031,912.171,372.616,914.385,362.554Z" transform="translate(-262.694 -250.46)" fill="#fff"/>
    <path id="パス_120" data-name="パス 120" d="M961.054,373.063l10.867-51.519a10.633,10.633,0,0,1,10.666-8.654c4.427,0,8.251,2.816,7.044,8.654l-10.867,50.915c-.6,3.22-.2,4.025,1.409,4.025,1.207,0,2.415-.6,4.025-1.811,6.44-4.025,10.867.6,9.861,6.038a12.187,12.187,0,0,1-5.031,6.841,22.752,22.752,0,0,1-14.892,5.032C963.67,392.585,958.036,387.15,961.054,373.063Zm39.243-85.53A14.725,14.725,0,0,1,986.411,299c-6.44,0-10.465-4.83-9.057-11.472,1.41-6.439,7.447-11.471,13.887-11.471C997.479,276.062,1001.706,281.094,1000.3,287.533Z" transform="translate(-258.651 -250.303)" fill="#fff"/>
    <path id="パス_121" data-name="パス 121" d="M1031.255,322.469a35.821,35.821,0,0,1,25.559-11.27c17.911,0,25.356,14.892,21.332,34.614-5.434,25.558-24.954,45.682-47.495,45.682-5.635,0-9.66-1.409-12.88-5.635l-9.66,45.482a10.65,10.65,0,0,1-10.666,8.452c-4.629,0-8.251-2.817-7.042-8.452l23.746-111.289a10.637,10.637,0,0,1,10.667-8.655c4.426,0,8.251,2.818,7.042,8.655Zm27.974,23.747c2.414-11.069-1.409-17.911-9.257-17.911-12.276,0-22.943,14.086-25.759,27.57l-.4,1.81c-1.812,10.466,2.414,16.705,10.061,16.705C1046.551,374.391,1056.211,360.906,1059.229,346.216Z" transform="translate(-257.211 -248.611)" fill="#fff"/>
  </g>
  <g id="グループ_20" data-name="グループ 20" transform="translate(162.428 216.75)">
    <path id="パス_122" data-name="パス 122" d="M453.087,477.008c-1.678,7.915,15.292,8.989,13.013,19.72-1.14,5.367-6.641,8.654-12.209,8.654-3.085,0-7.044-1.543-7.916-3.957-.8-2.549,2.349-5.634,4.629-4.025,1.074.738,1.945,2.348,4.562,2.348,2.817,0,4.427-1.207,4.763-3.02,1.409-6.438-15.562-7.243-12.947-19.585a15.592,15.592,0,0,1,15.5-12.209c7.646,0,11.872,5.031,10.329,12.409a3.654,3.654,0,0,1-3.622,2.952,2.271,2.271,0,0,1-2.415-2.952c.671-3.287-.872-6.574-5.5-6.574A8.048,8.048,0,0,0,453.087,477.008Z" transform="translate(-445.847 -457.959)" fill="#fff"/>
    <path id="パス_123" data-name="パス 123" d="M478.4,465.857c1.341-6.3,4.159-7.578,8.585-7.578h.47c1.543,0,2.616.872,2.146,2.885a3.345,3.345,0,0,1-3.353,2.884h-.268c-.8,0-1.342.334-1.61,1.609l-4.025,18.782a11.514,11.514,0,0,1,9.391-5.3c4.158,0,6.774,2.616,5.634,8.05l-2.548,11.805c-.2,1.073,0,1.342.47,1.342a2.491,2.491,0,0,0,1.409-.6c2.146-1.342,3.622.2,3.286,2.012a4.066,4.066,0,0,1-1.676,2.28,7.582,7.582,0,0,1-4.965,1.677c-3.487,0-5.365-1.811-4.359-6.506L489.2,488.53c.671-2.884-.47-3.688-2.08-3.688-3.086,0-7.445,3.085-8.854,9.592l-1.812,8.384a3.612,3.612,0,0,1-3.621,2.885,2.2,2.2,0,0,1-2.28-2.885Z" transform="translate(-444.661 -458.279)" fill="#fff"/>
    <path id="パス_124" data-name="パス 124" d="M521.5,498.036c-.2,1.073,0,1.342.47,1.342a2.684,2.684,0,0,0,1.409-.6c2.146-1.342,3.622.2,3.286,2.012a4.056,4.056,0,0,1-1.676,2.28,7.8,7.8,0,0,1-5.031,1.677c-2.818,0-4.493-1.14-4.562-3.957a12.365,12.365,0,0,1-8.988,4.158c-5.969,0-8.451-4.963-7.044-11.537,1.811-8.518,8.25-15.226,15.763-15.226a5.015,5.015,0,0,1,4.427,2.012,3.3,3.3,0,0,1,3.22-2.012c1.677,0,2.749.94,2.348,2.817Zm-15.9-4.763c-.739,3.688.536,5.969,3.085,5.969,3.957,0,7.512-4.426,8.585-8.854l.134-.335c.8-3.823-.67-6.17-3.287-6.17C509.893,483.883,506.674,488.376,505.6,493.273Z" transform="translate(-443.289 -457.321)" fill="#fff"/>
    <path id="パス_125" data-name="パス 125" d="M532.319,481.066a3.546,3.546,0,0,1,3.555-2.885,2.217,2.217,0,0,1,2.348,2.885l-.6,2.817c2.414-3.489,5.567-5.7,8.25-5.7,3.354,0,4.292,2.213,3.891,4.092a3.862,3.862,0,0,1-3.287,3.152c-1.61,0-1.475-1.408-3.019-1.408-3.555,0-6.975,6.239-7.982,9.994l-1.677,7.915a3.545,3.545,0,0,1-3.554,2.885,2.217,2.217,0,0,1-2.349-2.885Z" transform="translate(-441.9 -457.321)" fill="#fff"/>
    <path id="パス_126" data-name="パス 126" d="M548.7,491.529a16.462,16.462,0,0,1,16.031-13.348c7.781,0,10.4,4.629,9.458,8.988-1.006,4.628-5.165,8.117-11.537,8.117a8.238,8.238,0,0,1-3.622-.873,2.157,2.157,0,0,1-1.207-2.616,3.646,3.646,0,0,1,3.487-2.749,28.158,28.158,0,0,0,2.953.6,3.472,3.472,0,0,0,3.621-2.684c.4-1.811-.738-3.219-4.225-3.219-4.293,0-7.714,3.554-8.586,7.78-.939,4.226,1.274,7.849,6.172,7.849a13.109,13.109,0,0,0,7.042-2.012,4.486,4.486,0,0,1,2.012-.6,1.891,1.891,0,0,1,1.945,1.275c.469,1.677-.47,3.219-2.214,4.292a19.86,19.86,0,0,1-10.531,2.616C551.251,504.944,547.159,498.706,548.7,491.529Z" transform="translate(-440.91 -457.321)" fill="#fff"/>
    <path id="パス_127" data-name="パス 127" d="M605.835,480.93a3.589,3.589,0,0,1,3.554-2.749,2.124,2.124,0,0,1,2.281,2.749L606.5,505.415c-1.944,9.122-7.915,12.945-14.957,12.945-3.891,0-6.976-.938-8.654-2.548a2.864,2.864,0,0,1-.671-2.348,3.715,3.715,0,0,1,3.287-2.817,4.287,4.287,0,0,1,2.213.67,8.273,8.273,0,0,0,4.9,1.477c3.958,0,6.977-2.415,8.318-8.721l.67-3.086a12.171,12.171,0,0,1-8.988,3.757c-4.629,0-6.841-2.683-5.769-7.982l3.355-15.7a3.362,3.362,0,0,1,3.554-2.885c1.812,0,2.75.94,2.348,2.885l-3.019,14.153c-.67,3.152.537,3.891,2.08,3.891,3.153,0,7.513-3.22,8.989-9.994Z" transform="translate(-439.282 -457.321)" fill="#fff"/>
    <path id="パス_128" data-name="パス 128" d="M629.584,478.181c7.781,0,12.61,4.9,10.8,13.348a16.347,16.347,0,0,1-16.434,13.214c-7.713,0-12.61-4.829-10.8-13.214A16.453,16.453,0,0,1,629.584,478.181Zm-1.208,5.7c-4.293,0-7.914,2.952-8.921,7.646-1.006,4.629,1.409,7.512,5.7,7.512a9.122,9.122,0,0,0,8.921-7.512C635.085,486.835,632.6,483.883,628.377,483.883Z" transform="translate(-437.81 -457.321)" fill="#fff"/>
    <path id="パス_129" data-name="パス 129" d="M661.632,481.066a3.545,3.545,0,0,1,3.554-2.885,2.2,2.2,0,0,1,2.281,2.885l-3.622,16.971c-.2,1.073,0,1.342.47,1.342a2.491,2.491,0,0,0,1.409-.6c2.147-1.342,3.622.2,3.287,2.012a4.064,4.064,0,0,1-1.677,2.28,7.575,7.575,0,0,1-4.963,1.677c-2.818,0-4.629-1.14-4.7-4.091a11.9,11.9,0,0,1-9.256,4.091c-4.629,0-6.841-2.683-5.769-7.982l3.355-15.7a3.362,3.362,0,0,1,3.554-2.885c1.812,0,2.75.94,2.348,2.885l-3.018,14.153c-.671,3.152.536,3.891,2.078,3.891,3.153,0,7.513-3.22,8.989-9.994Z" transform="translate(-436.384 -457.321)" fill="#fff"/>
    <path id="パス_130" data-name="パス 130" d="M674.714,481.066a3.546,3.546,0,0,1,3.555-2.885,2.217,2.217,0,0,1,2.348,2.885l-.6,2.817c2.415-3.489,5.568-5.7,8.25-5.7,3.354,0,4.293,2.213,3.891,4.092a3.862,3.862,0,0,1-3.287,3.152c-1.61,0-1.475-1.408-3.018-1.408-3.555,0-6.976,6.239-7.983,9.994l-1.676,7.915a3.545,3.545,0,0,1-3.555,2.885,2.217,2.217,0,0,1-2.348-2.885Z" transform="translate(-435.044 -457.321)" fill="#fff"/>
    <path id="パス_131" data-name="パス 131" d="M711.192,482.743c2.415-2.884,6.037-4.562,8.385-4.562,3.353,0,5.165,1.476,5.231,4.293,2.818-3.019,5.97-4.293,8.654-4.293,3.755,0,6.842,2.817,5.768,7.915l-2.548,11.941c-.2,1.073,0,1.342.536,1.342a2.514,2.514,0,0,0,1.342-.6c2.147-1.342,3.623.2,3.287,2.012a4.065,4.065,0,0,1-1.676,2.28,7.582,7.582,0,0,1-4.965,1.677c-3.487,0-5.365-1.811-4.359-6.506l2.213-10.666c.672-3.018-.267-3.823-1.475-3.823-2.885,0-6.909,3.286-8.451,10.732l-1.61,7.445a3.673,3.673,0,0,1-3.622,2.817,2.15,2.15,0,0,1-2.281-2.817l3.153-14.757c.537-2.682-.4-3.42-1.61-3.42-2.817,0-6.373,2.75-8.049,8.72l-2.012,9.39a3.615,3.615,0,0,1-3.622,2.885,2.2,2.2,0,0,1-2.281-2.885L705.625,481a3.6,3.6,0,0,1,3.554-2.817A2.189,2.189,0,0,1,711.527,481Z" transform="translate(-433.556 -457.321)" fill="#fff"/>
    <path id="パス_132" data-name="パス 132" d="M742.872,491.529A16.462,16.462,0,0,1,758.9,478.181c7.781,0,10.4,4.629,9.457,8.988-1.006,4.628-5.164,8.117-11.536,8.117a8.238,8.238,0,0,1-3.622-.873,2.157,2.157,0,0,1-1.207-2.616,3.645,3.645,0,0,1,3.487-2.749,28.156,28.156,0,0,0,2.953.6,3.472,3.472,0,0,0,3.621-2.684c.4-1.811-.738-3.219-4.225-3.219-4.293,0-7.714,3.554-8.586,7.78-.939,4.226,1.275,7.849,6.171,7.849a13.109,13.109,0,0,0,7.043-2.012,4.486,4.486,0,0,1,2.012-.6,1.892,1.892,0,0,1,1.945,1.275c.469,1.677-.47,3.219-2.214,4.292a19.86,19.86,0,0,1-10.531,2.616C745.421,504.944,741.329,498.706,742.872,491.529Z" transform="translate(-431.561 -457.321)" fill="#fff"/>
    <path id="パス_133" data-name="パス 133" d="M779.543,482.743c2.414-2.884,6.036-4.562,8.385-4.562,3.353,0,5.164,1.476,5.231,4.293,2.816-3.019,5.969-4.293,8.654-4.293,3.755,0,6.841,2.817,5.768,7.915l-2.549,11.941c-.2,1.073,0,1.342.537,1.342a2.521,2.521,0,0,0,1.342-.6c2.147-1.342,3.622.2,3.287,2.012a4.069,4.069,0,0,1-1.677,2.28,7.579,7.579,0,0,1-4.964,1.677c-3.487,0-5.365-1.811-4.359-6.506l2.213-10.666c.672-3.018-.268-3.823-1.475-3.823-2.884,0-6.909,3.286-8.452,10.732l-1.61,7.445a3.673,3.673,0,0,1-3.622,2.817,2.151,2.151,0,0,1-2.281-2.817l3.153-14.757c.538-2.682-.4-3.42-1.609-3.42-2.817,0-6.373,2.75-8.05,8.72l-2.012,9.39a3.613,3.613,0,0,1-3.622,2.885,2.2,2.2,0,0,1-2.28-2.885L773.975,481a3.6,3.6,0,0,1,3.555-2.817A2.189,2.189,0,0,1,779.878,481Z" transform="translate(-430.265 -457.321)" fill="#fff"/>
    <path id="パス_134" data-name="パス 134" d="M827.723,478.181c7.781,0,12.61,4.9,10.8,13.348a16.347,16.347,0,0,1-16.434,13.214c-7.714,0-12.61-4.829-10.8-13.214A16.452,16.452,0,0,1,827.723,478.181Zm-1.209,5.7c-4.292,0-7.913,2.952-8.92,7.646-1.006,4.629,1.408,7.512,5.7,7.512a9.123,9.123,0,0,0,8.922-7.512C833.224,486.835,830.742,483.883,826.515,483.883Z" transform="translate(-428.27 -457.321)" fill="#fff"/>
    <path id="パス_135" data-name="パス 135" d="M844.438,481.066a3.546,3.546,0,0,1,3.555-2.885,2.217,2.217,0,0,1,2.348,2.885l-.6,2.817c2.414-3.489,5.567-5.7,8.25-5.7,3.354,0,4.293,2.213,3.891,4.092a3.862,3.862,0,0,1-3.287,3.152c-1.61,0-1.475-1.408-3.019-1.408-3.554,0-6.975,6.239-7.982,9.994l-1.677,7.915a3.544,3.544,0,0,1-3.554,2.885,2.217,2.217,0,0,1-2.349-2.885Z" transform="translate(-426.872 -457.321)" fill="#fff"/>
    <path id="パス_136" data-name="パス 136" d="M861.011,498.8l3.622-17.172a3.545,3.545,0,0,1,3.554-2.885,2.218,2.218,0,0,1,2.348,2.885L866.915,498.6c-.2,1.073-.068,1.342.469,1.342a2.328,2.328,0,0,0,1.342-.6c2.147-1.342,3.622.2,3.287,2.012a4.069,4.069,0,0,1-1.677,2.28,7.578,7.578,0,0,1-4.964,1.677C861.883,505.307,860.005,503.5,861.011,498.8Zm13.079-28.508a4.905,4.905,0,0,1-4.628,3.823,2.951,2.951,0,0,1-3.019-3.823,4.924,4.924,0,0,1,4.629-3.824A3,3,0,0,1,874.09,470.294Z" transform="translate(-425.871 -457.885)" fill="#fff"/>
    <path id="パス_137" data-name="パス 137" d="M874.453,491.529a16.462,16.462,0,0,1,16.031-13.348c7.781,0,10.4,4.629,9.457,8.988-1.005,4.628-5.164,8.117-11.536,8.117a8.238,8.238,0,0,1-3.622-.873,2.157,2.157,0,0,1-1.207-2.616,3.645,3.645,0,0,1,3.487-2.749,28.156,28.156,0,0,0,2.953.6,3.471,3.471,0,0,0,3.621-2.684c.4-1.811-.738-3.219-4.225-3.219-4.293,0-7.714,3.554-8.586,7.78-.939,4.226,1.275,7.849,6.172,7.849a13.109,13.109,0,0,0,7.042-2.012,4.486,4.486,0,0,1,2.012-.6A1.891,1.891,0,0,1,898,498.036c.469,1.677-.47,3.219-2.214,4.292a19.86,19.86,0,0,1-10.531,2.616C877,504.944,872.91,498.706,874.453,491.529Z" transform="translate(-425.226 -457.321)" fill="#fff"/>
    <path id="パス_138" data-name="パス 138" d="M916.329,486.231c-1.342-1.14-2.08-2.482-4.427-2.482a3.562,3.562,0,0,0-3.757,2.548c-.335,1.678,1.208,2.616,3.153,4.092,2.616,1.879,5.769,4.024,4.9,8.049-.872,3.958-3.958,6.507-8.451,6.507-3.153,0-6.775-1.006-6.037-4.494a3.414,3.414,0,0,1,3.219-2.816c1.476,0,2.08,1.811,3.891,1.811,1.006,0,1.476-.4,1.61-1.007.268-1.207-1.476-2.28-3.757-3.823-2.548-1.744-5.165-3.622-4.225-8.116,1.072-5.165,5.969-8.318,10.8-8.318,3.958,0,6.3,1.744,7.513,3.958C922.164,484.822,918.072,487.907,916.329,486.231Z" transform="translate(-423.903 -457.321)" fill="#fff"/>
  </g>
  <rect id="長方形_22" data-name="長方形 22" width="100.622" height="2.096" rx="1" transform="translate(0 248.279)" fill="#fff"/>
  <rect id="長方形_23" data-name="長方形 23" width="100.622" height="2.096" rx="1" transform="translate(721.378 248.279)" fill="#fff"/>
</svg>
